<svg width="170" height="175" viewBox="0 0 170 175" fill="none" xmlns="http://www.w3.org/2000/svg">
<path d="M35.7718 35.8648C52.507 20.7271 76.3595 14.1245 99.7985 20.405C136.5 30.2391 158.282 67.9308 148.46 104.588C138.637 141.246 100.92 163.002 64.2245 153.169C36.7014 145.794 17.5642 122.749 13.8633 96.2223" stroke="#2EA93A" stroke-width="5" stroke-miterlimit="10"/>
<rect x="46.6055" y="77.4915" width="21.0676" height="48.9944" fill="#C4C4C4"/>
<rect x="73.0625" y="97.0893" width="21.0676" height="29.3966" fill="#C4C4C4"/>
<rect x="99.5195" y="86.3105" width="21.0676" height="40.1754" fill="#C4C4C4"/>
<rect x="50.0352" y="81.4111" width="2.44972" height="4.89944" fill="white"/>
<rect x="50.0352" y="90.23" width="2.44972" height="4.89944" fill="white"/>
<rect x="50.0352" y="99.049" width="2.44972" height="4.89944" fill="white"/>
<rect x="50.0352" y="107.868" width="2.44972" height="4.89944" fill="white"/>
<rect x="50.0352" y="116.687" width="2.44972" height="4.89944" fill="white"/>
<rect x="76.4922" y="99.049" width="2.44972" height="4.89944" fill="white"/>
<rect x="76.4922" y="107.868" width="2.44972" height="4.89944" fill="white"/>
<rect x="76.4922" y="116.687" width="2.44972" height="4.89944" fill="white"/>
<rect x="102.949" y="89.2502" width="2.44972" height="4.89944" fill="white"/>
<rect x="102.949" y="98.0692" width="2.44972" height="4.89944" fill="white"/>
<rect x="102.949" y="106.888" width="2.44972" height="4.89944" fill="white"/>
<rect x="102.949" y="115.707" width="2.44972" height="4.89944" fill="white"/>
<rect x="55.9141" y="81.4111" width="2.44972" height="4.89944" fill="white"/>
<rect x="55.9141" y="90.23" width="2.44972" height="4.89944" fill="white"/>
<rect x="55.9141" y="99.049" width="2.44972" height="4.89944" fill="white"/>
<rect x="55.9141" y="107.868" width="2.44972" height="4.89944" fill="white"/>
<rect x="55.9141" y="116.687" width="2.44972" height="4.89944" fill="white"/>
<rect x="82.3711" y="99.049" width="2.44972" height="4.89944" fill="white"/>
<rect x="82.3711" y="107.868" width="2.44972" height="4.89944" fill="white"/>
<rect x="82.3711" y="116.687" width="2.44972" height="4.89944" fill="white"/>
<rect x="108.828" y="89.2502" width="2.44972" height="4.89944" fill="white"/>
<rect x="108.828" y="98.0692" width="2.44972" height="4.89944" fill="white"/>
<rect x="108.828" y="106.888" width="2.44972" height="4.89944" fill="white"/>
<rect x="108.828" y="115.707" width="2.44972" height="4.89944" fill="white"/>
<rect x="61.7939" y="81.4111" width="2.44972" height="4.89944" fill="white"/>
<rect x="61.7939" y="90.23" width="2.44972" height="4.89944" fill="white"/>
<rect x="61.7939" y="99.049" width="2.44972" height="4.89944" fill="white"/>
<rect x="61.7939" y="107.868" width="2.44972" height="4.89944" fill="white"/>
<rect x="61.7939" y="116.687" width="2.44972" height="4.89944" fill="white"/>
<rect x="88.251" y="99.049" width="2.44972" height="4.89944" fill="white"/>
<rect x="88.251" y="107.868" width="2.44972" height="4.89944" fill="white"/>
<rect x="88.251" y="116.687" width="2.44972" height="4.89944" fill="white"/>
<rect x="114.707" y="89.2502" width="2.44972" height="4.89944" fill="white"/>
<rect x="114.707" y="98.0692" width="2.44972" height="4.89944" fill="white"/>
<rect x="114.707" y="106.888" width="2.44972" height="4.89944" fill="white"/>
<rect x="114.707" y="115.707" width="2.44972" height="4.89944" fill="white"/>
<ellipse cx="79.6996" cy="89.9432" rx="3.35164" ry="8.2909" transform="rotate(-19.6274 79.6996 89.9432)" fill="#2EA93A" fill-opacity="0.61"/>
<ellipse cx="108.741" cy="76.0846" rx="4.38357" ry="10.8436" transform="rotate(-7.66891 108.741 76.0846)" fill="#2EA93A" fill-opacity="0.61"/>
<ellipse rx="4.38357" ry="10.8436" transform="matrix(-0.991056 -0.133448 -0.133448 0.991056 61.2213 67.7555)" fill="#2EA93A" fill-opacity="0.61"/>
<ellipse cx="86.3287" cy="84.9603" rx="3.35164" ry="8.2909" transform="rotate(23.7597 86.3287 84.9603)" fill="#2EA93A" fill-opacity="0.61"/>
<ellipse cx="116.227" cy="73.506" rx="3.35164" ry="8.2909" transform="rotate(52.0373 116.227 73.506)" fill="#2EA93A" fill-opacity="0.61"/>
<ellipse rx="3.35164" ry="8.2909" transform="matrix(-0.615148 0.788411 0.788411 0.615148 53.7337 65.1769)" fill="#2EA93A" fill-opacity="0.61"/>
<ellipse cx="118.319" cy="64.8183" rx="2.28929" ry="5.66298" transform="rotate(8.72242 118.319 64.8183)" fill="#2EA93A" fill-opacity="0.61"/>
<ellipse rx="2.28929" ry="5.66298" transform="matrix(-0.988435 0.151648 0.151648 0.988435 51.6428 56.4893)" fill="#2EA93A" fill-opacity="0.61"/>
</svg>
